<svg xmlns="http://www.w3.org/2000/svg" version="1.0" width="1284.000000pt" height="194.000000pt" viewBox="0 0 1284.000000 194.000000" preserveAspectRatio="xMidYMid meet">

<g transform="translate(0.000000,194.000000) scale(0.100000,-0.100000)" fill="#000000" stroke="none">
<path d="M2617 1916 c-113 -47 -195 -114 -256 -211 -54 -85 -80 -167 -87 -273 -9 -125 8 -220 57 -320 69 -140 175 -231 334 -283 68 -23 82 -23 572 -29 l501 -5 43 -30 c23 -16 53 -50 66 -75 21 -39 24 -56 21 -126 -4 -98 -32 -150 -100 -183 -44 -21 -51 -21 -761 -21 l-717 0 0 -180 0 -180 713 0 c790 0 788 0 924 65 274 133 384 486 243 781 -64 132 -185 234 -340 286 -62 21 -85 22 -565 28 -440 4 -504 7 -530 22 -71 38 -105 105 -105 200 1 98 49 179 123 207 19 7 239 11 663 11 l634 0 0 170 0 170 -687 0 -688 0 -58 -24z"/>
<path d="M10712 1793 l3 -148 163 -3 162 -2 0 150 0 150 -165 0 -166 0 3 -147z"/>
<path d="M9588 1588 l-3 -223 -212 -3 -213 -2 0 -160 0 -160 213 -2 212 -3 3 -517 2 -518 165 0 165 0 0 520 0 520 285 0 285 0 0 160 0 160 -285 0 -285 0 0 225 0 225 -165 0 -165 0 -2 -222z"/>
<path d="M762 1665 c-13 -10 -28 -39 -38 -73 -60 -210 -215 -370 -423 -438 -106 -34 -111 -42 -111 -185 0 -141 9 -159 98 -184 201 -58 375 -230 428 -423 12 -44 26 -71 47 -88 27 -23 35 -24 167 -24 102 0 140 3 149 13 27 33 -34 255 -105 385 -61 112 -178 251 -251 299 -21 14 -20 16 71 106 103 102 139 151 196 265 64 129 112 320 89 349 -18 20 -287 18 -317 -2z" fill="#c8d401"/>
<path d="M1183 1665 c-17 -46 34 -237 96 -357 53 -104 110 -179 202 -268 l78 -76 -69 -62 c-163 -148 -289 -385 -307 -579 -6 -60 -5 -62 20 -68 13 -4 84 -5 156 -3 154 4 157 5 189 113 56 186 213 348 393 407 131 42 139 53 139 195 0 131 -13 152 -107 183 -100 32 -180 78 -250 144 -83 77 -138 162 -170 264 -37 120 -41 122 -220 122 -120 0 -145 -3 -150 -15z" fill="#c8d401"/>
<path d="M4758 1349 c-142 -33 -261 -148 -310 -299 -18 -57 -22 -95 -26 -317 -5 -293 4 -388 48 -480 35 -76 116 -160 188 -197 104 -53 138 -56 645 -56 l467 0 0 165 0 165 -466 0 c-503 0 -499 0 -535 54 -21 32 -26 529 -5 579 30 74 15 72 538 75 l468 3 0 160 0 159 -487 -1 c-269 -1 -505 -5 -525 -10z"/>
<path d="M6360 1341 c-163 -53 -266 -155 -306 -305 -11 -40 -14 -158 -14 -543 l0 -493 159 0 160 0 3 477 c3 520 2 508 61 540 29 16 72 18 425 21 l392 3 0 160 0 159 -412 -1 c-368 0 -419 -2 -468 -18z"/>
<path d="M7432 923 l4 -438 28 -83 c54 -156 152 -266 301 -337 131 -62 170 -66 647 -63 415 3 427 4 455 24 15 11 38 36 51 54 l22 33 0 623 0 624 -160 0 -160 0 0 -515 0 -515 -313 0 c-345 0 -382 5 -447 59 -20 16 -49 53 -65 82 l-30 54 -3 418 -3 417 -165 0 -165 0 3 -437z"/>
<path d="M10710 680 l0 -680 165 0 165 0 0 680 0 680 -165 0 -165 0 0 -680z"/>
<path d="M11630 1341 c-145 -46 -258 -174 -290 -326 -7 -36 -10 -163 -8 -372 l3 -318 32 -67 c40 -85 106 -156 181 -196 108 -58 143 -62 499 -62 l323 0 0 155 0 155 -307 0 c-448 0 -423 -22 -423 369 0 291 4 316 62 351 31 19 50 20 373 20 323 0 342 -1 373 -20 59 -36 78 -119 43 -188 -35 -67 -31 -67 -388 -70 l-323 -3 0 -155 0 -154 319 0 c175 0 343 5 372 10 120 23 239 112 293 218 67 133 74 296 18 416 -37 78 -113 162 -180 199 -98 53 -134 57 -542 56 -330 0 -382 -2 -430 -18z"/>
</g>
</svg>