<svg xmlns="http://www.w3.org/2000/svg" version="1.0" width="1372.000000pt" height="194.000000pt" viewBox="0 0 1372.000000 194.000000" preserveAspectRatio="xMidYMid meet">

<g transform="translate(0.000000,194.000000) scale(0.100000,-0.100000)" fill="#000000" stroke="none">
<path d="M3497 1916 c-113 -47 -195 -114 -256 -211 -54 -85 -80 -167 -87 -273 -9 -125 8 -220 57 -320 69 -140 175 -231 334 -283 68 -23 82 -23 572 -29 l501 -5 43 -30 c23 -16 53 -50 66 -75 21 -39 24 -56 21 -126 -4 -98 -32 -150 -100 -183 -44 -21 -51 -21 -761 -21 l-717 0 0 -180 0 -180 713 0 c790 0 788 0 924 65 274 133 384 486 243 781 -64 132 -185 234 -340 286 -62 21 -85 22 -565 28 -440 4 -504 7 -530 22 -71 38 -105 105 -105 200 1 98 49 179 123 207 19 7 239 11 663 11 l634 0 0 170 0 170 -687 0 -688 0 -58 -24z"/>
<path d="M11592 1793 l3 -148 163 -3 162 -2 0 150 0 150 -165 0 -166 0 3 -147z"/>
<path d="M997 1903 c-10 -10 -29 -56 -44 -103 -89 -295 -317 -512 -620 -590 -26 -6 -52 -23 -72 -45 l-31 -36 0 -152 c0 -133 2 -156 20 -184 21 -35 57 -57 110 -67 103 -18 255 -104 358 -200 121 -115 201 -248 244 -410 7 -26 23 -59 35 -72 l22 -24 218 2 218 3 -3 45 c-18 275 -199 624 -430 825 -34 30 -70 59 -80 64 -15 9 -13 14 18 38 228 179 404 456 468 738 11 50 22 110 24 135 l3 45 -220 3 c-200 2 -222 1 -238 -15z" fill="#c8d401"/>
<path d="M1580 1890 c0 -47 28 -175 61 -275 71 -218 223 -440 409 -598 l55 -47 -35 -26 c-117 -89 -285 -293 -352 -429 -71 -142 -138 -368 -138 -464 l0 -31 218 0 c256 0 248 -3 282 119 54 195 182 367 355 480 71 47 175 93 240 106 53 12 93 38 114 76 18 32 21 54 21 169 0 188 -18 218 -149 254 -274 74 -491 290 -580 581 -39 124 -17 115 -276 115 l-225 0 0 -30z" fill="#c8d401"/>
<path d="M10468 1588 l-3 -223 -212 -3 -213 -2 0 -160 0 -160 213 -2 212 -3 3 -517 2 -518 165 0 165 0 0 520 0 520 285 0 285 0 0 160 0 160 -285 0 -285 0 0 225 0 225 -165 0 -165 0 -2 -222z"/>
<path d="M5638 1349 c-142 -33 -261 -148 -310 -299 -18 -57 -22 -95 -26 -317 -5 -293 4 -388 48 -480 35 -76 116 -160 188 -197 104 -53 138 -56 645 -56 l467 0 0 165 0 165 -466 0 c-503 0 -499 0 -535 54 -21 32 -26 529 -5 579 30 74 15 72 538 75 l468 3 0 160 0 159 -487 -1 c-269 -1 -505 -5 -525 -10z"/>
<path d="M7240 1341 c-163 -53 -266 -155 -306 -305 -11 -40 -14 -158 -14 -543 l0 -493 159 0 160 0 3 477 c3 520 2 508 61 540 29 16 72 18 425 21 l392 3 0 160 0 159 -412 -1 c-368 0 -419 -2 -468 -18z"/>
<path d="M8312 923 l4 -438 28 -83 c54 -156 152 -266 301 -337 131 -62 170 -66 647 -63 415 3 427 4 455 24 15 11 38 36 51 54 l22 33 0 623 0 624 -160 0 -160 0 0 -515 0 -515 -313 0 c-345 0 -382 5 -447 59 -20 16 -49 53 -65 82 l-30 54 -3 418 -3 417 -165 0 -165 0 3 -437z"/>
<path d="M11590 680 l0 -680 165 0 165 0 0 680 0 680 -165 0 -165 0 0 -680z"/>
<path d="M12510 1341 c-145 -46 -258 -174 -290 -326 -7 -36 -10 -163 -8 -372 l3 -318 32 -67 c40 -85 106 -156 181 -196 108 -58 143 -62 499 -62 l323 0 0 155 0 155 -307 0 c-448 0 -423 -22 -423 369 0 291 4 316 62 351 31 19 50 20 373 20 323 0 342 -1 373 -20 59 -36 78 -119 43 -188 -35 -67 -31 -67 -388 -70 l-323 -3 0 -155 0 -154 319 0 c175 0 343 5 372 10 120 23 239 112 293 218 67 133 74 296 18 416 -37 78 -113 162 -180 199 -98 53 -134 57 -542 56 -330 0 -382 -2 -430 -18z"/>
</g>
</svg>