<svg xmlns="http://www.w3.org/2000/svg" version="1.0" width="1252.000000pt" height="194.000000pt" viewBox="0 0 1252.000000 194.000000" preserveAspectRatio="xMidYMid meet">

<g transform="translate(0.000000,194.000000) scale(0.100000,-0.100000)" fill="#000000" stroke="none">
<path d="M10392 1793 l3 -148 163 -3 162 -2 0 150 0 150 -165 0 -166 0 3 -147z"/>
<path d="M9270 1585 l0 -225 -215 0 -215 0 0 -160 0 -160 215 0 215 0 0 -520 0 -520 165 0 165 0 0 520 0 520 285 0 285 0 0 160 0 160 -285 0 -285 0 0 225 0 225 -165 0 -165 0 0 -225z"/>
<path d="M1013 1440 c-30 -12 -48 -43 -72 -120 -27 -87 -80 -172 -152 -246 -74 -75 -150 -121 -253 -155 -112 -37 -120 -49 -124 -194 -4 -117 5 -155 34 -155 9 0 22 -6 30 -14 8 -8 40 -22 72 -31 82 -24 181 -78 245 -136 56 -49 125 -143 119 -162 -1 -5 4 -30 12 -56 8 -25 20 -65 26 -88 8 -33 18 -45 50 -62 36 -19 58 -21 190 -21 113 0 150 3 151 13 5 63 -25 191 -71 298 -46 109 -128 225 -223 316 l-84 80 68 61 c160 146 274 357 309 577 5 31 4 55 -2 63 -7 8 -47 12 -135 12 -97 0 -128 3 -139 15 -17 17 -20 17 -51 5z" fill="#c8d401"/>
<path d="M1422 1438 c-17 -17 -15 -109 4 -182 20 -79 86 -219 116 -248 13 -13 50 -58 82 -101 32 -42 88 -104 124 -137 56 -51 63 -60 43 -60 -29 0 -146 -110 -206 -195 -99 -137 -179 -350 -173 -456 l3 -54 167 -3 c194 -4 195 -3 223 94 59 204 225 370 429 429 92 27 96 34 96 179 0 151 -7 163 -115 195 -194 57 -367 237 -416 434 -19 78 -38 87 -189 87 -101 0 -130 3 -140 15 -15 18 -32 19 -48 3z" fill="#c8d401"/>
<path d="M2810 1341 c-99 -32 -153 -70 -205 -146 -72 -104 -84 -263 -29 -385 35 -78 120 -159 201 -191 55 -22 74 -23 395 -29 l338 -5 25 -26 c53 -53 51 -152 -5 -201 l-30 -28 -470 0 -470 0 0 -165 0 -165 463 0 c374 0 474 3 525 15 217 51 351 217 352 432 0 210 -104 370 -290 445 -52 21 -74 23 -390 28 l-334 5 -12 24 c-15 30 -4 62 27 78 18 10 128 13 432 13 l407 0 0 160 0 160 -437 -1 c-391 0 -444 -2 -493 -18z" fill="#1d1d1b"/>
<path d="M4418 1341 c-151 -49 -258 -164 -298 -322 -7 -29 -10 -153 -8 -369 l3 -325 34 -70 c63 -128 184 -218 325 -244 37 -7 232 -11 518 -11 l458 0 0 165 0 165 -465 0 c-516 0 -508 -1 -539 65 -15 31 -17 68 -14 299 3 250 4 266 24 293 37 50 54 52 542 52 l452 1 0 160 0 160 -487 -1 c-444 0 -493 -2 -545 -18z" fill="#1d1d1b"/>
<path d="M6053 1345 c-157 -42 -268 -147 -313 -293 -19 -60 -20 -94 -20 -558 l0 -494 160 0 160 0 1 463 c0 498 2 514 52 551 28 20 41 21 428 24 l399 3 0 160 0 159 -407 -1 c-318 0 -420 -3 -460 -14z" fill="#1d1d1b"/>
<path d="M7113 928 c5 -472 6 -488 67 -608 63 -125 167 -216 310 -273 112 -44 165 -48 612 -45 405 3 417 4 445 24 15 11 38 36 51 54 l22 33 0 623 0 624 -160 0 -160 0 0 -515 0 -515 -318 0 c-369 0 -386 3 -463 80 -77 77 -79 88 -79 552 l0 398 -166 0 -166 0 5 -432z" fill="#1d1d1b"/>
<path d="M10390 680 l0 -680 165 0 165 0 0 680 0 680 -165 0 -165 0 0 -680z" fill="#1d1d1b"/>
<path d="M11337 1349 c-144 -34 -272 -163 -311 -315 -21 -83 -23 -631 -2 -709 30 -113 114 -218 214 -269 98 -50 150 -56 495 -56 l317 0 0 155 0 155 -307 0 c-281 0 -312 2 -350 19 -71 33 -73 42 -73 354 0 269 0 275 23 308 39 59 40 59 412 59 320 0 342 -1 372 -20 87 -53 82 -193 -8 -242 -31 -16 -63 -18 -346 -18 l-313 0 0 -155 0 -155 320 0 c196 0 339 4 372 11 162 34 284 151 330 318 70 252 -65 490 -315 557 -40 11 -135 14 -422 13 -203 -1 -387 -5 -408 -10z" fill="#1d1d1b"/>
</g>
</svg>